<svg xmlns="http://www.w3.org/2000/svg" viewBox="0 0 32 32" shape-rendering="crispEdges">
  <rect width="32" height="32" fill="transparent"/>

  <!-- subtle stars -->
  <rect x="4" y="6" width="1" height="1" fill="#00ff41"/>
  <rect x="26" y="8" width="1" height="1" fill="#1a3a1a"/>
  <rect x="7" y="24" width="1" height="1" fill="#1a3a1a"/>
  <rect x="28" y="22" width="1" height="1" fill="#00ff41"/>

  <!-- accretion disk (side view) -->
  <!-- glow/top rim -->
  <rect x="10" y="12" width="1" height="1" fill="#1a3a1a"/>
  <rect x="22" y="12" width="1" height="1" fill="#1a3a1a"/>

  <rect x="8" y="13" width="3" height="1" fill="#1a3a1a"/>
  <rect x="21" y="13" width="3" height="1" fill="#1a3a1a"/>

  <rect x="7" y="14" width="5" height="1" fill="#007a1f"/>
  <rect x="20" y="14" width="5" height="1" fill="#007a1f"/>

  <!-- disk core -->
  <rect x="6" y="15" width="7" height="1" fill="#00aa2c"/>
  <rect x="19" y="15" width="7" height="1" fill="#00aa2c"/>

  <rect x="5" y="16" width="8" height="1" fill="#00ff41"/>
  <rect x="19" y="16" width="8" height="1" fill="#00ff41"/>

  <rect x="6" y="17" width="7" height="1" fill="#00aa2c"/>
  <rect x="19" y="17" width="7" height="1" fill="#00aa2c"/>

  <!-- lower rim -->
  <rect x="7" y="18" width="5" height="1" fill="#007a1f"/>
  <rect x="20" y="18" width="5" height="1" fill="#007a1f"/>

  <rect x="8" y="19" width="3" height="1" fill="#1a3a1a"/>
  <rect x="21" y="19" width="3" height="1" fill="#1a3a1a"/>

  <rect x="10" y="20" width="1" height="1" fill="#1a3a1a"/>
  <rect x="22" y="20" width="1" height="1" fill="#1a3a1a"/>

  <!-- black hole silhouette (center occlusion) -->
  <!-- outer shadow -->
  <rect x="13" y="11" width="6" height="1" fill="#0a0a0a"/>
  <rect x="12" y="12" width="8" height="1" fill="#0a0a0a"/>
  <rect x="11" y="13" width="10" height="1" fill="#0a0a0a"/>
  <rect x="11" y="14" width="10" height="1" fill="#0a0a0a"/>
  <rect x="10" y="15" width="12" height="1" fill="#0a0a0a"/>
  <rect x="10" y="16" width="12" height="1" fill="#0a0a0a"/>
  <rect x="10" y="17" width="12" height="1" fill="#0a0a0a"/>
  <rect x="11" y="18" width="10" height="1" fill="#0a0a0a"/>
  <rect x="11" y="19" width="10" height="1" fill="#0a0a0a"/>
  <rect x="12" y="20" width="8" height="1" fill="#0a0a0a"/>
  <rect x="13" y="21" width="6" height="1" fill="#0a0a0a"/>

  <!-- inner void -->
  <rect x="14" y="13" width="4" height="1" fill="#000"/>
  <rect x="13" y="14" width="6" height="1" fill="#000"/>
  <rect x="13" y="15" width="6" height="1" fill="#000"/>
  <rect x="12" y="16" width="8" height="1" fill="#000"/>
  <rect x="13" y="17" width="6" height="1" fill="#000"/>
  <rect x="13" y="18" width="6" height="1" fill="#000"/>
  <rect x="14" y="19" width="4" height="1" fill="#000"/>
</svg>
